<?xml version="1.0" encoding="utf-8"?>
<!-- Generator: Adobe Illustrator 19.2.0, SVG Export Plug-In . SVG Version: 6.00 Build 0)  -->
<svg version="1.1" id="Vrstva_1" xmlns="http://www.w3.org/2000/svg" xmlns:xlink="http://www.w3.org/1999/xlink" x="0px" y="0px"
	 viewBox="0 0 54.1 12.8" style="enable-background:new 0 0 54.1 12.8;" xml:space="preserve">
<style type="text/css">
	.st0{fill:#FFFFFF;}
	.st1{fill:#5C9999;}
</style>
<path class="st0" d="M0.6,10.8v-8h4.2c1.5,0,2.3,1,2.3,2c0,1-0.6,1.7-1.4,1.8c0.9,0.1,1.5,1,1.5,2c0,1.2-0.8,2.2-2.3,2.2H0.6z
	 M5.4,5.1c0-0.5-0.4-0.9-0.9-0.9H2.3V6h2.1C5,6,5.4,5.6,5.4,5.1z M5.6,8.4c0-0.5-0.4-0.9-1-0.9H2.3v1.9h2.2C5.2,9.3,5.6,8.9,5.6,8.4
	z"/>
<path class="st0" d="M8.2,7.8c0-1.7,1.2-3,3-3c1.7,0,2.9,1.3,2.9,3.2v0.3H9.8c0.1,0.7,0.7,1.3,1.7,1.3c0.5,0,1.2-0.2,1.5-0.6l0.7,1
	c-0.6,0.5-1.5,0.8-2.4,0.8C9.5,10.9,8.2,9.7,8.2,7.8z M11.2,6c-0.9,0-1.4,0.7-1.4,1.3h2.9C12.6,6.8,12.2,6,11.2,6z"/>
<path class="st0" d="M14.7,10l0.7-1.1c0.4,0.4,1.3,0.8,2,0.8c0.7,0,1-0.3,1-0.6c0-1-3.4-0.2-3.4-2.5c0-1,0.9-1.8,2.4-1.8
	c1,0,1.8,0.3,2.3,0.8l-0.6,1C18.6,6.3,18,6,17.3,6c-0.6,0-0.9,0.3-0.9,0.6c0,0.9,3.4,0.1,3.4,2.5c0,1.1-0.9,1.9-2.5,1.9
	C16.3,10.9,15.3,10.6,14.7,10z"/>
<path class="st0" d="M21.2,9.3v-3h-1V5h1V3.4h1.5V5h1.2v1.3h-1.2v2.6c0,0.4,0.2,0.6,0.5,0.6c0.2,0,0.4-0.1,0.5-0.2l0.3,1.2
	c-0.2,0.2-0.6,0.4-1.3,0.4C21.8,10.9,21.2,10.3,21.2,9.3z"/>
<path class="st1" d="M24.8,10.8V9.4C28,7,29,6.2,29,5.2c0-0.7-0.6-1-1.3-1c-0.9,0-1.6,0.4-2.1,0.9l-1-1.1c0.8-0.9,2-1.3,3.1-1.3
	c1.7,0,3.1,1,3.1,2.6c0,1.4-1.1,2.6-3.2,4.1h3.3v1.5H24.8z"/>
<path class="st0" d="M32.2,10.8v-8h1.7v6.5h3.4v1.5H32.2z"/>
<path class="st0" d="M38.4,10.8V5H40v5.8H38.4z"/>
<path class="st0" d="M43,10.8L40.7,5h1.6l1.5,4l1.5-4h1.6l-2.3,5.8l-0.8,2L43,10.8z"/>
<path class="st0" d="M47.3,7.8c0-1.7,1.2-3,3-3c1.7,0,2.9,1.3,2.9,3.2v0.3h-4.3c0.1,0.7,0.7,1.3,1.7,1.3c0.5,0,1.2-0.2,1.5-0.6
	l0.7,1c-0.6,0.5-1.5,0.8-2.4,0.8C48.6,10.9,47.3,9.7,47.3,7.8z M50.3,6c-0.9,0-1.4,0.7-1.4,1.3h2.9C51.7,6.8,51.3,6,50.3,6z"/>
<path class="st0" d="M42.9,3.4c0-0.5,0.4-0.9,0.9-0.9c0.5,0,0.9,0.4,0.9,0.9c0,0.5-0.4,0.9-0.9,0.9C43.3,4.3,42.9,3.9,42.9,3.4z"/>
<path class="st0" d="M43.8,1.3c1.1,0,2.1,0.9,2.1,2.1h1.3c0-1.9-1.5-3.4-3.4-3.4s-3.4,1.5-3.4,3.4h1.3C41.7,2.2,42.7,1.3,43.8,1.3z"
	/>
</svg>
